<svg id="Ebene_1" data-name="Ebene 1" xmlns="http://www.w3.org/2000/svg" viewBox="0 0 250 250"><path d="M193.15,124c-.18,36.76-12.38,82.68-46.94,102a48.9,48.9,0,0,1-43.95,2.26C86.6,221.25,75,207.45,67,192.64,46.89,155.4,45.69,107.13,61.07,68c11.64-29.57,39.55-61,74.69-50.49,18.12,5.43,31.67,20.56,40.6,36.63C188.15,75.39,193,99.9,193.15,124c0,6.43,10,6.45,10,0-.2-40.63-14.57-91.11-53.37-111.42a58.91,58.91,0,0,0-50.37-2.42C81.71,17.6,68.2,32.6,59,49.13,36.55,89.54,34.9,142.78,52.5,185.25c13.94,33.66,46.27,66.72,85.91,54.84,20.18-6,35.71-22.17,45.92-40.05,13.13-23,18.69-49.76,18.82-76C203.18,117.56,193.18,117.56,193.15,124Z"/><path d="M114.5,53v58c0,7.72,12,7.73,12,0V53c0-7.72-12-7.73-12,0Z"/></svg>